<svg xmlns="http://www.w3.org/2000/svg" width="471" height="117" fill="none"><path fill="#FCFCFA" d="M3.27 115c-1.55 0-2.325-.568-2.325-1.705 0-.93.672-1.55 2.015-1.86l3.565-.62c2.17-.413 3.565-.982 4.185-1.705.723-.723 1.085-2.17 1.085-4.34V13.63c0-2.17-.362-3.617-1.085-4.34-.62-.723-2.015-1.292-4.185-1.705l-3.565-.62c-1.343-.31-2.015-.93-2.015-1.86C.945 3.968 1.72 3.4 3.27 3.4h28.365c1.55 0 2.325.62 2.325 1.86 0 .93-.568 1.498-1.705 1.705l-4.185.62c-2.17.31-3.617.878-4.34 1.705-.62.827-.93 2.325-.93 4.495v86.8c0 3.72 1.033 6.407 3.1 8.06 2.17 1.653 4.857 2.48 8.06 2.48 2.377 0 4.805-.465 7.285-1.395 2.583-1.033 4.908-2.893 6.975-5.58 2.067-2.79 3.617-6.82 4.65-12.09l2.015-10.385c.31-1.343 1.085-2.015 2.325-2.015 1.447 0 2.067.878 1.86 2.635l-1.86 29.14c-.207 2.377-1.498 3.565-3.875 3.565H3.27zm90.378-93.775c-1.963 0-3.616-.672-4.96-2.015-1.24-1.447-1.86-3.152-1.86-5.115 0-2.79.827-5.012 2.48-6.665 1.757-1.653 3.72-2.48 5.89-2.48 2.067 0 3.772.672 5.115 2.015 1.447 1.24 2.17 2.893 2.17 4.96 0 2.893-.878 5.167-2.635 6.82-1.756 1.653-3.823 2.48-6.2 2.48zm-12.71 95.325c-3.41 0-5.838-1.24-7.285-3.72-1.446-2.583-1.498-6.768-.155-12.555l11.47-49.135c.517-2.273.569-4.03.155-5.27-.31-1.343-1.24-2.015-2.79-2.015-1.86 0-3.926 1.395-6.2 4.185-2.17 2.687-4.65 7.853-7.44 15.5-.413 1.343-1.136 2.015-2.17 2.015-1.55 0-1.963-.93-1.24-2.79 2.274-7.13 4.65-12.71 7.13-16.74 2.584-4.03 5.167-6.872 7.75-8.525 2.584-1.653 4.96-2.48 7.13-2.48 3.617 0 6.149 1.292 7.595 3.875 1.447 2.48 1.499 6.613.155 12.4l-11.47 49.135c-.516 2.273-.62 4.082-.31 5.425.414 1.24 1.395 1.86 2.945 1.86 1.86 0 3.875-1.343 6.045-4.03 2.274-2.79 4.805-8.008 7.595-15.655.414-1.343 1.137-2.015 2.17-2.015 1.55 0 1.964.93 1.24 2.79-2.17 7.027-4.598 12.607-7.285 16.74-2.583 4.03-5.166 6.872-7.75 8.525-2.583 1.653-5.011 2.48-7.285 2.48zm30.394-1.55c-1.55 0-2.325-.568-2.325-1.705 0-.93.671-1.55 2.015-1.86l1.86-.31c2.17-.413 3.565-1.033 4.185-1.86.723-.93 1.085-2.48 1.085-4.65v-52.08c0-1.86-.31-3.1-.93-3.72-.517-.723-1.499-1.188-2.945-1.395l-3.255-.465c-1.344-.103-2.015-.672-2.015-1.705 0-.827.826-1.395 2.48-1.705 3.203-.517 5.631-1.343 7.285-2.48 1.756-1.137 3.565-2.532 5.425-4.185.93-.93 1.705-1.395 2.325-1.395.93 0 1.395.62 1.395 1.86v6.975c0 .723.31 1.292.93 1.705.62.31 1.291.103 2.015-.62 4.236-4.03 7.905-6.768 11.005-8.215 3.203-1.447 6.406-2.17 9.61-2.17 2.996 0 5.631.827 7.905 2.48 2.376 1.55 4.133 3.927 5.27 7.13.31.827.826 1.343 1.55 1.55.826.103 1.601-.207 2.325-.93 4.236-3.927 7.905-6.613 11.005-8.06 3.1-1.447 6.251-2.17 9.455-2.17 4.34 0 7.853 1.653 10.54 4.96 2.79 3.203 4.185 7.957 4.185 14.26v50.375c0 2.17.31 3.72.93 4.65.723.827 2.17 1.395 4.34 1.705l3.41.465c1.136.207 1.705.827 1.705 1.86 0 1.137-.62 1.705-1.86 1.705h-26.505c-1.447 0-2.17-.568-2.17-1.705 0-1.033.568-1.653 1.705-1.86l2.17-.31c2.376-.31 3.926-.93 4.65-1.86.723-.93 1.085-2.48 1.085-4.65v-48.67c0-5.063-.93-8.628-2.79-10.695-1.757-2.067-4.185-3.1-7.285-3.1-3.1 0-5.942.982-8.525 2.945-2.48 1.86-4.495 4.392-6.045 7.595-1.55 3.1-2.325 6.562-2.325 10.385v41.54c0 2.17.361 3.72 1.085 4.65.723.827 2.221 1.395 4.495 1.705l3.41.465c1.136.207 1.705.827 1.705 1.86 0 1.137-.62 1.705-1.86 1.705h-26.35c-1.447 0-2.17-.568-2.17-1.705 0-1.033.568-1.653 1.705-1.86l2.17-.31c2.17-.31 3.565-.93 4.185-1.86.723-.93 1.085-2.48 1.085-4.65v-48.67c0-5.063-.93-8.628-2.79-10.695-1.757-2.067-4.185-3.1-7.285-3.1-3.1 0-5.942.982-8.525 2.945-2.48 1.86-4.495 4.392-6.045 7.595-1.55 3.1-2.325 6.562-2.325 10.385v41.54c0 2.17.31 3.72.93 4.65.723.93 2.17 1.498 4.34 1.705l4.185.465c1.136.207 1.705.775 1.705 1.705 0 1.24-.775 1.86-2.325 1.86h-26.195zm122.155-93.775c-2.17 0-4.03-.775-5.58-2.325-1.446-1.55-2.17-3.513-2.17-5.89s.724-4.288 2.17-5.735c1.55-1.55 3.41-2.325 5.58-2.325s3.979.775 5.425 2.325c1.447 1.447 2.17 3.358 2.17 5.735 0 2.377-.723 4.34-2.17 5.89-1.446 1.55-3.255 2.325-5.425 2.325zM220.467 115c-1.55 0-2.325-.568-2.325-1.705 0-.93.672-1.55 2.015-1.86l1.86-.31c2.584-.413 4.237-1.033 4.96-1.86.724-.93 1.085-2.48 1.085-4.65v-52.08c0-1.86-.31-3.1-.93-3.72-.516-.723-1.498-1.188-2.945-1.395l-3.255-.465c-1.343-.103-2.015-.672-2.015-1.705 0-.827.827-1.395 2.48-1.705 3.204-.517 5.787-1.343 7.75-2.48 1.964-1.137 3.875-2.532 5.735-4.185.93-.93 1.705-1.395 2.325-1.395.93 0 1.395.62 1.395 1.86v67.27c0 2.17.31 3.72.93 4.65.62.93 1.809 1.498 3.565 1.705l3.875.465c1.137.207 1.705.775 1.705 1.705 0 1.24-.775 1.86-2.325 1.86h-25.885zm52.647 1.395c-3.617 0-6.613-1.24-8.99-3.72-2.273-2.583-3.41-6.768-3.41-12.555V42.15c0-1.24-.62-1.86-1.86-1.86h-4.495c-1.653 0-2.48-.62-2.48-1.86 0-.827.465-1.55 1.395-2.17 3.41-2.377 6.148-4.908 8.215-7.595 2.067-2.79 3.875-6.562 5.425-11.315.723-2.17 1.602-3.255 2.635-3.255 1.137 0 1.705.827 1.705 2.48V33.78c0 1.447.723 2.17 2.17 2.17h10.075c1.653 0 2.48.723 2.48 2.17s-.827 2.17-2.48 2.17h-10.075c-1.447 0-2.17.723-2.17 2.17v57.815c0 2.273.362 4.082 1.085 5.425.723 1.24 2.067 1.86 4.03 1.86 2.17 0 3.927-1.085 5.27-3.255 1.447-2.17 2.377-5.683 2.79-10.54.207-1.447.878-2.17 2.015-2.17 1.24 0 1.86.775 1.86 2.325-.31 7.957-1.963 13.692-4.96 17.205-2.893 3.513-6.303 5.27-10.23 5.27z"/><path fill="#FCFCFA" fill-opacity=".5" d="M293.541 115c-1.24 0-1.86-.568-1.86-1.705 0-1.033.569-1.653 1.705-1.86l2.17-.31c2.17-.31 3.772-.93 4.805-1.86 1.034-.93 1.55-2.48 1.55-4.65V15.8c0-1.86-.31-3.152-.93-3.875-.516-.723-1.498-1.137-2.945-1.24l-3.565-.465c-1.136-.207-1.705-.827-1.705-1.86 0-1.033.569-1.653 1.705-1.86 2.894-.62 5.374-1.343 7.44-2.17 2.067-.827 3.772-1.653 5.115-2.48C308.68.817 309.92.3 310.746.3c1.137 0 1.705.827 1.705 2.48v101.835c0 2.17.31 3.72.93 4.65.724.827 2.17 1.395 4.34 1.705l3.565.465c1.137.207 1.705.827 1.705 1.86 0 1.137-.62 1.705-1.86 1.705h-27.59zm60.718 1.395c-4.96 0-9.403-1.653-13.33-4.96-3.927-3.307-7.078-7.957-9.455-13.95-2.273-6.097-3.41-13.123-3.41-21.08 0-8.163 1.188-15.345 3.565-21.545 2.377-6.2 5.632-11.057 9.765-14.57 4.133-3.513 8.732-5.27 13.795-5.27 6.097 0 11.005 2.532 14.725 7.595 3.823 4.96 5.735 13.072 5.735 24.335 0 3.41-1.292 5.115-3.875 5.115h-29.45c-2.067 0-3.1 1.188-3.1 3.565 0 10.953 1.602 19.168 4.805 24.645 3.203 5.477 7.285 8.215 12.245 8.215 3.927 0 7.13-1.395 9.61-4.185 2.48-2.79 4.495-7.492 6.045-14.105.31-1.137.982-1.705 2.015-1.705 1.24 0 1.705 1.033 1.395 3.1-1.653 9.197-4.288 15.655-7.905 19.375-3.617 3.617-8.008 5.425-13.175 5.425zm-12.4-48.205h15.655c4.96 0 7.44-2.583 7.44-7.75 0-6.717-.827-11.987-2.48-15.81-1.653-3.823-4.133-5.735-7.44-5.735-4.03 0-7.44 2.325-10.23 6.975-2.687 4.65-4.443 11.263-5.27 19.84-.207 1.653.568 2.48 2.325 2.48zm58.043 48.205c-2.377 0-4.909-.31-7.595-.93-2.687-.517-4.857-1.188-6.51-2.015-.93-.517-1.395-1.395-1.395-2.635l-.465-17.36c0-1.757.671-2.635 2.015-2.635 1.136 0 1.911.827 2.325 2.48 1.756 7.337 3.875 12.348 6.355 15.035 2.583 2.687 5.683 4.03 9.3 4.03 2.996 0 5.476-1.137 7.44-3.41 1.963-2.377 2.945-5.632 2.945-9.765 0-4.133-1.137-7.802-3.41-11.005-2.274-3.203-6.097-6.717-11.47-10.54-5.374-3.617-9.3-7.233-11.78-10.85-2.48-3.72-3.72-7.75-3.72-12.09 0-5.89 2.066-10.643 6.2-14.26 4.133-3.617 9.61-5.425 16.43-5.425 2.066 0 4.081.258 6.045.775 1.963.413 3.72 1.137 5.27 2.17.93.62 1.395 1.447 1.395 2.48l.31 17.05c0 1.55-.62 2.325-1.86 2.325-.724 0-1.24-.207-1.55-.62-.31-.517-.569-1.137-.775-1.86-2.067-6.717-4.134-11.367-6.2-13.95-2.067-2.687-4.599-4.03-7.595-4.03-2.687 0-4.909.93-6.665 2.79-1.757 1.86-2.635 4.185-2.635 6.975 0 3.617 1.085 6.768 3.255 9.455 2.17 2.687 6.096 5.993 11.78 9.92 5.166 3.72 9.041 7.75 11.625 12.09 2.686 4.237 4.03 8.887 4.03 13.95 0 6.613-2.119 11.935-6.355 15.965-4.237 3.927-9.817 5.89-16.74 5.89zm47.68 0c-2.376 0-4.908-.31-7.595-.93-2.686-.517-4.856-1.188-6.51-2.015-.93-.517-1.395-1.395-1.395-2.635l-.465-17.36c0-1.757.672-2.635 2.015-2.635 1.137 0 1.912.827 2.325 2.48 1.757 7.337 3.875 12.348 6.355 15.035 2.584 2.687 5.684 4.03 9.3 4.03 2.997 0 5.477-1.137 7.44-3.41 1.964-2.377 2.945-5.632 2.945-9.765 0-4.133-1.136-7.802-3.41-11.005-2.273-3.203-6.096-6.717-11.47-10.54-5.373-3.617-9.3-7.233-11.78-10.85-2.48-3.72-3.72-7.75-3.72-12.09 0-5.89 2.067-10.643 6.2-14.26 4.134-3.617 9.61-5.425 16.43-5.425 2.067 0 4.082.258 6.045.775 1.964.413 3.72 1.137 5.27 2.17.93.62 1.395 1.447 1.395 2.48l.31 17.05c0 1.55-.62 2.325-1.86 2.325-.723 0-1.24-.207-1.55-.62-.31-.517-.568-1.137-.775-1.86-2.066-6.717-4.133-11.367-6.2-13.95-2.066-2.687-4.598-4.03-7.595-4.03-2.686 0-4.908.93-6.665 2.79-1.756 1.86-2.635 4.185-2.635 6.975 0 3.617 1.085 6.768 3.255 9.455 2.17 2.687 6.097 5.993 11.78 9.92 5.167 3.72 9.042 7.75 11.625 12.09 2.687 4.237 4.03 8.887 4.03 13.95 0 6.613-2.118 11.935-6.355 15.965-4.236 3.927-9.816 5.89-16.74 5.89z"/></svg>